<?xml version="1.0" encoding="utf-8"?>
<!-- Generator: Adobe Illustrator 21.0.0, SVG Export Plug-In . SVG Version: 6.00 Build 0)  -->
<svg version="1.1" id="Capa_1" xmlns="http://www.w3.org/2000/svg" xmlns:xlink="http://www.w3.org/1999/xlink" x="0px" y="0px"
	 viewBox="0 0 229.4 229.4" style="enable-background:new 0 0 229.4 229.4;" xml:space="preserve">
<g>
	<g id="_x31_0_23_">
		<g>
			<path d="M222.6,196.1c7.5,7.5,7.5,19.6,0,27c-7.5,7.5-19.6,7.5-27,0l-81-81l-81.6,81.6c-7.5,7.5-19.7,7.5-27.3,0
				c-7.5-7.5-7.5-19.7,0-27.3l81.6-81.6l-81-81c-7.5-7.5-7.5-19.6,0-27c7.5-7.5,19.6-7.5,27,0l81,81l82.2-82.2
				c7.5-7.5,19.7-7.5,27.3,0c7.5,7.5,7.5,19.7,0,27.3l-82.2,82.2L222.6,196.1z"/>
		</g>
	</g>
</g>
</svg>
