<?xml version="1.0" encoding="utf-8"?>
<!-- Generator: Adobe Illustrator 21.0.0, SVG Export Plug-In . SVG Version: 6.00 Build 0)  -->
<svg version="1.1" id="Layer_1" xmlns="http://www.w3.org/2000/svg" xmlns:xlink="http://www.w3.org/1999/xlink" x="0px" y="0px"
	 viewBox="0 0 144 19.5" style="enable-background:new 0 0 144 19.5;" xml:space="preserve">
<g>
	<path d="M71.3,11.8c-0.4,1.1-0.8,1.8-1.2,2.3c-0.5,0.6-1.3,0.7-2.6,0.7c-1,0-1.8,0-2.3-0.3c-0.4-0.2-0.5-0.7-0.5-2V3.3
		c0-2,0.2-2.1,2.1-2.3V0.4h-6.1V1c1.9,0.1,2.1,0.3,2.1,2.3v9.4c0,2-0.2,2.2-2.2,2.3v0.7h10.7c0.2-0.7,0.7-3,0.8-3.7L71.3,11.8z
		 M59.2,15.6V15c-1.9-0.1-2.1-0.3-2.1-2.3V3.3c0-2,0.2-2.1,2.1-2.3V0.4l-6.2,0V1c1.9,0.1,2.1,0.3,2.1,2.3v9.4c0,2-0.2,2.1-2.1,2.3
		v0.7H59.2z M52.5,8.6h-6v0.6c2.3,0.2,2.5,0.3,2.5,2v2c0,1-0.3,1.3-0.8,1.5c-0.5,0.3-1.2,0.4-2,0.4c-4.5,0-6.5-4-6.5-7.3
		c0-4.4,2.6-7,6.2-7c2.2,0,4,0.8,4.6,3.6l0.7-0.1c-0.2-1.6-0.3-2.8-0.4-3.7C50,0.5,48.2,0,46.2,0c-4.6,0-9,2.7-9,8.1
		c0,4.7,3.5,7.9,8.6,7.9c1.9,0,3.8-0.5,5.3-0.9C51,14.5,51,13.7,51,12.9v-2c0-1.4,0.1-1.5,1.5-1.7V8.6z M28.6,8.2V2.4
		c0-0.6,0.1-0.9,0.3-1c0.2-0.1,0.6-0.2,1.3-0.2c1.8,0,3.5,0.9,3.5,3.5c0,1.3-0.4,2.2-1.3,2.9C31.7,8,31,8.2,29.8,8.2H28.6z
		 M38.5,15.2c-0.5-0.1-1.1-0.4-1.7-1.1c-0.6-0.6-1.1-1.2-1.9-2.4c-0.7-1.1-1.7-2.6-2.1-3.4c1.7-0.8,3-2,3-4c0-1.4-0.6-2.5-1.6-3.1
		c-0.9-0.6-2-0.8-3.8-0.8h-5.8V1c1.8,0.2,2,0.2,2,2.2v9.5c0,2-0.2,2.1-2.1,2.3v0.7h6.2V15c-1.9-0.1-2.1-0.3-2.1-2.3V9h0.8
		c1.2,0,1.6,0.3,2,0.9c0.7,1.2,1.6,2.6,2.4,3.8c1.1,1.5,2,2,3.8,2.1c0.3,0,0.5,0,0.8,0L38.5,15.2z M23.2,15.6V15
		c-1.9-0.1-2.1-0.3-2.1-2.3V3.3c0-2,0.2-2.1,2.1-2.3V0.4H17V1c1.9,0.1,2.1,0.3,2.1,2.3v9.4c0,2-0.2,2.1-2.1,2.3v0.7H23.2z M15.7,0.4
		h-5.3V1c1.9,0.2,2,0.4,1.6,1.8c-0.8,2.4-2.5,6.9-3.7,9.9h0C6.7,8.6,5,4.1,4.4,2.4C4,1.4,4.1,1.2,5.8,1V0.4H0L0,1
		c1.4,0.1,1.8,0.3,2.4,2.1c1.4,3.4,3.3,8.5,4.9,12.8H8C9.8,11,12.3,5.1,12.9,3.5c0.9-2.1,1.2-2.3,2.8-2.5V0.4z"/>
	<path d="M143.3,3.8c-0.2-1.5-0.3-2.4-0.4-3.2C142,0.3,141,0,140,0c-3,0-4.8,1.9-4.8,4.2c0,2.7,2.4,3.8,3.9,4.6
		c1.8,0.9,3.1,1.8,3.1,3.5c0,1.7-1.1,2.8-2.8,2.8c-2.4,0-3.5-2.4-3.9-3.8l-0.7,0.2c0.1,1.1,0.4,3.2,0.6,3.6c0.2,0.1,0.6,0.3,1.2,0.5
		c0.6,0.2,1.3,0.4,2.3,0.4c3.1,0,5.2-2,5.2-4.4c0-2.6-2.2-3.7-4.1-4.7c-1.9-1-3-1.8-3-3.5c0-1.3,0.8-2.6,2.6-2.6
		c2,0,2.7,1.6,3.1,3.1L143.3,3.8z M132.5,11.8c-0.3,0.9-0.8,1.7-1.2,2.2c-0.5,0.6-1.2,0.8-3,0.8c-1.2,0-2,0-2.4-0.3
		c-0.4-0.3-0.6-0.8-0.6-1.9V8.2h2.2c2,0,2.2,0.1,2.5,1.8h0.7V5.5h-0.7c-0.3,1.6-0.4,1.8-2.5,1.8h-2.2V1.9c0-0.7,0-0.8,0.8-0.8h1.8
		c1.7,0,2.3,0.2,2.7,0.7c0.3,0.5,0.5,1,0.8,2l0.7-0.1c-0.1-1.2-0.2-2.8-0.2-3.4h-10.5V1c1.8,0.2,2,0.2,2,2.4v9.4
		c0,1.9-0.2,2.1-2.3,2.3v0.7h11.3c0.2-0.7,0.7-2.9,0.8-3.7L132.5,11.8z M119.6,15.6V15c-2-0.2-2.1-0.3-2.2-2.8l-0.2-8.5
		c-0.1-2.4,0.1-2.5,2.2-2.7V0.4h-4l-5.4,11.8l-5.4-11.8h-3.9V1c2.1,0.2,2.3,0.3,2,3.4l-0.3,4.9c-0.2,2.4-0.3,3.5-0.4,4.3
		c-0.2,1-0.6,1.2-2,1.4v0.7h5.5V15c-1.6-0.2-2.1-0.3-2.2-1.5c0-0.9,0-2,0.1-3.9l0.4-6.7h0l5.3,12.6h0.5l5.7-12.9h0.1l0.1,9.6
		c0,2.5-0.1,2.6-2,2.8v0.7H119.6z M92.9,9.1h-4.3c0.7-1.9,1.5-4,2.2-6h0L92.9,9.1z M98.9,15.6V15c-1.5-0.1-1.8-0.4-2.6-2.4
		C94.8,8.5,93.3,4,91.8,0l-0.7,0.2l-4.9,12.4c-0.8,2.1-1.2,2.2-2.6,2.4v0.7h5.1V15c-1.8-0.2-2-0.4-1.5-1.9c0.3-1,0.7-2,1-3h5
		c0.5,1.4,1,2.7,1.3,3.6c0.3,0.9,0.1,1.1-1.4,1.3v0.7H98.9z M84.3,0.4h-6.1V1c1.9,0.1,2.1,0.3,2.1,2.3v8c0,2,0,3.3-0.3,4.5
		c-0.2,1.3-0.9,2.4-2.3,3.1l0.3,0.7c0.6-0.2,1.4-0.6,2.2-1.4c1.6-1.4,2-3.1,2-6.1V3.3c0-2,0.2-2.1,2-2.3V0.4z"/>
</g>
</svg>
