<?xml version="1.0" encoding="utf-8"?>
<!-- Generator: Adobe Illustrator 17.1.0, SVG Export Plug-In . SVG Version: 6.00 Build 0)  -->
<!DOCTYPE svg PUBLIC "-//W3C//DTD SVG 1.1//EN" "http://www.w3.org/Graphics/SVG/1.1/DTD/svg11.dtd" [
	<!ENTITY ns_extend "http://ns.adobe.com/Extensibility/1.0/">
	<!ENTITY ns_ai "http://ns.adobe.com/AdobeIllustrator/10.0/">
	<!ENTITY ns_graphs "http://ns.adobe.com/Graphs/1.0/">
	<!ENTITY ns_vars "http://ns.adobe.com/Variables/1.0/">
	<!ENTITY ns_imrep "http://ns.adobe.com/ImageReplacement/1.0/">
	<!ENTITY ns_sfw "http://ns.adobe.com/SaveForWeb/1.0/">
	<!ENTITY ns_custom "http://ns.adobe.com/GenericCustomNamespace/1.0/">
	<!ENTITY ns_adobe_xpath "http://ns.adobe.com/XPath/1.0/">
]>
<svg version="1.1" id="Layer_1" xmlns:x="&ns_extend;" xmlns:i="&ns_ai;" xmlns:graph="&ns_graphs;"
	 xmlns="http://www.w3.org/2000/svg" xmlns:xlink="http://www.w3.org/1999/xlink" x="0px" y="0px" viewBox="0 0 278.6 49"
	 enable-background="new 0 0 278.6 49" xml:space="preserve">
<metadata>
	<sfw  xmlns="&ns_sfw;">
		<slices></slices>
		<sliceSourceBounds  height="36.1" width="265.9" bottomLeftOrigin="true" x="8" y="-115"></sliceSourceBounds>
		<optimizationSettings>
			<targetSettings  targetSettingsID="0" fileFormat="PNG24Format">
				<PNG24Format  transparency="true" noMatteColor="false" filtered="false" matteColor="#FFFFFF" interlaced="false">
					</PNG24Format>
			</targetSettings>
		</optimizationSettings>
	</sfw>
</metadata>
<g>
	<g>
		<defs>
			<filter id="Adobe_OpacityMaskFilter" filterUnits="userSpaceOnUse" x="6.4" y="6.4" width="265.9" height="36.1">
				<feColorMatrix  type="matrix" values="1 0 0 0 0  0 1 0 0 0  0 0 1 0 0  0 0 0 1 0"/>
			</filter>
		</defs>
		<mask maskUnits="userSpaceOnUse" x="6.4" y="6.4" width="265.9" height="36.1" id="SVGID_1_">
			<g filter="url(#Adobe_OpacityMaskFilter)">
				<path fill="#FFFFFF" d="M138,28.3c-0.7,2-1.5,3.4-2.2,4.3c-1,1.1-2.5,1.3-4.9,1.3c-1.8,0-3.3-0.1-4.2-0.6c-0.8-0.4-1-1.3-1-3.7
					V12.5c0-3.7,0.4-3.9,3.8-4.2V7.1h-11.3v1.2c3.5,0.3,3.8,0.5,3.8,4.2v17.4c0,3.7-0.3,4-4,4.3v1.2h19.7c0.4-1.3,1.3-5.5,1.6-6.8
					L138,28.3z M115.7,35.3v-1.2c-3.6-0.3-3.9-0.5-3.9-4.2V12.5c0-3.7,0.3-4,3.9-4.2V7.1h-11.5v1.2c3.6,0.3,3.9,0.5,3.9,4.2v17.4
					c0,3.7-0.3,4-3.9,4.2v1.2H115.7z M103.3,22.3h-11v1.2c4.3,0.3,4.6,0.6,4.6,3.7v3.7c0,1.8-0.5,2.3-1.4,2.8
					c-1,0.5-2.3,0.8-3.8,0.8c-8.4,0-12.1-7.3-12.1-13.6c0-8,4.9-12.9,11.5-12.9c4.1,0,7.4,1.4,8.5,6.7l1.2-0.3
					c-0.3-2.9-0.6-5.3-0.7-6.8c-1.4-0.3-4.7-1.3-8.3-1.3c-8.5,0-16.6,4.9-16.6,15C75.1,30,81.5,36,91.1,36c3.5,0,7-1,9.7-1.6
					c-0.3-1.2-0.3-2.6-0.3-4.1v-3.7c0-2.6,0.2-2.8,2.8-3.2V22.3z M59.2,21.6V10.9c0-1.2,0.2-1.7,0.5-1.9c0.3-0.3,1.1-0.4,2.3-0.4
					c3.3,0,6.4,1.7,6.4,6.4c0,2.3-0.7,4.1-2.4,5.4c-1.1,0.9-2.5,1.2-4.7,1.2H59.2z M77.5,34.6c-1-0.3-2-0.7-3.1-2
					c-1-1.1-2-2.3-3.5-4.5c-1.3-2-3.1-4.9-3.9-6.3c3.2-1.4,5.5-3.7,5.5-7.4c0-2.6-1.1-4.6-2.9-5.7c-1.7-1.1-3.8-1.5-7-1.5H51.9v1.2
					c3.4,0.3,3.7,0.4,3.7,4.1v17.5c0,3.7-0.4,4-4,4.2v1.2h11.4v-1.2c-3.5-0.3-3.9-0.5-3.9-4.2V23h1.4c2.3,0,3,0.5,3.7,1.7
					c1.3,2.1,2.9,4.8,4.4,7c2,2.8,3.8,3.8,7,4c0.5,0,1,0,1.5,0L77.5,34.6z M49.3,35.3v-1.2c-3.6-0.3-3.9-0.5-3.9-4.2V12.5
					c0-3.7,0.3-4,3.9-4.2V7.1H37.8v1.2c3.6,0.3,3.9,0.5,3.9,4.2v17.4c0,3.7-0.3,4-3.9,4.2v1.2H49.3z M35.4,7.1h-9.8v1.2
					c3.5,0.4,3.8,0.8,3,3.3c-1.4,4.3-4.7,12.8-6.9,18.2h-0.1c-2.9-7.5-6.1-15.9-7.2-18.9C13.7,9,13.9,8.7,17,8.3V7.1H6.4v1.3
					c2.6,0.2,3.3,0.6,4.5,3.8c2.5,6.3,6.1,15.6,9,23.6h1.3c3.3-9,7.9-20,9-22.8c1.6-3.9,2.2-4.3,5.2-4.6V7.1z"/>
				<path fill="#FFFFFF" d="M271,13.4c-0.3-2.7-0.6-4.4-0.7-6c-1.6-0.5-3.5-1-5.5-1c-5.6,0-8.9,3.6-8.9,7.7c0,4.9,4.4,7.1,7.2,8.6
					c3.3,1.7,5.7,3.3,5.7,6.5c0,3.2-2,5.2-5.2,5.2c-4.5,0-6.4-4.4-7.1-7l-1.3,0.3c0.3,2.1,0.8,5.8,1.2,6.7c0.4,0.2,1,0.5,2.1,0.9
					c1.1,0.3,2.5,0.6,4.3,0.6c5.8,0,9.6-3.6,9.6-8.2c0-4.9-4.1-6.9-7.5-8.6c-3.4-1.8-5.5-3.3-5.5-6.4c0-2.3,1.5-4.8,4.8-4.8
					c3.8,0,4.9,3,5.7,5.8L271,13.4z M251,28.3c-0.6,1.7-1.4,3.2-2.1,4.1c-1,1.1-2.2,1.5-5.5,1.5c-2.2,0-3.7,0-4.5-0.6
					c-0.8-0.6-1-1.5-1-3.5v-8.2h4.1c3.8,0,4.1,0.3,4.7,3.4h1.3v-8.3h-1.3c-0.6,2.9-0.8,3.3-4.7,3.3h-4.1V10c0-1.3,0.1-1.4,1.4-1.4
					h3.3c3.1,0,4.3,0.3,4.9,1.2c0.6,1,1,1.9,1.4,3.7l1.3-0.2c-0.1-2.2-0.3-5.2-0.3-6.3h-19.4v1.2c3.4,0.3,3.7,0.4,3.7,4.3v17.3
					c0,3.5-0.3,3.9-4.3,4.2v1.2h20.9c0.4-1.3,1.3-5.4,1.5-6.9L251,28.3z M227.2,35.3v-1.2c-3.8-0.3-3.9-0.6-4-5.2l-0.4-15.7
					c-0.1-4.5,0.2-4.6,4-4.9V7.1h-7.4l-10,21.7l-9.9-21.7h-7.1v1.2c4,0.4,4.2,0.6,3.8,6.2l-0.6,9c-0.4,4.5-0.6,6.4-0.8,8
					c-0.3,1.8-1.2,2.3-3.7,2.6v1.2h10.1v-1.2c-2.9-0.3-3.9-0.6-4-2.7c0-1.7,0-3.6,0.1-7.2l0.7-12.4h0.1l9.7,23.2h0.9l10.6-23.8h0.2
					l0.1,17.7c0,4.6-0.1,4.8-3.6,5.2v1.2H227.2z M178,23.2h-8c1.3-3.6,2.7-7.3,4.1-11.1h0.1L178,23.2z M189,35.3v-1.2
					c-2.8-0.3-3.4-0.7-4.8-4.4c-2.8-7.6-5.7-15.8-8.4-23.3l-1.3,0.4l-9,22.8c-1.5,3.8-2.1,4.1-4.9,4.5v1.2h9.4v-1.2
					c-3.3-0.3-3.7-0.7-2.7-3.5c0.6-1.8,1.2-3.7,1.9-5.6h9.3c1,2.7,1.8,5,2.4,6.7c0.6,1.7,0.2,2-2.6,2.4v1.2H189z M161.9,7.1h-11.2
					v1.2c3.5,0.3,3.9,0.6,3.9,4.2v14.8c0,3.7-0.1,6.2-0.5,8.3c-0.4,2.5-1.7,4.5-4.2,5.7l0.6,1.2c1.1-0.3,2.6-1.2,4-2.5
					c2.9-2.7,3.7-5.6,3.7-11.2V12.5c0-3.6,0.3-4,3.7-4.2V7.1z"/>
			</g>
		</mask>
		<g mask="url(#SVGID_1_)">
			<g>
				<path fill="#918A53" d="M138,28.3c-0.7,2-1.5,3.4-2.2,4.3c-1,1.1-2.5,1.3-4.9,1.3c-1.8,0-3.3-0.1-4.2-0.6c-0.8-0.4-1-1.3-1-3.7
					V12.5c0-3.7,0.4-3.9,3.8-4.2V7.1h-11.3v1.2c3.5,0.3,3.8,0.5,3.8,4.2v17.4c0,3.7-0.3,4-4,4.3v1.2h19.7c0.4-1.3,1.3-5.5,1.6-6.8
					L138,28.3z M115.7,35.3v-1.2c-3.6-0.3-3.9-0.5-3.9-4.2V12.5c0-3.7,0.3-4,3.9-4.2V7.1h-11.5v1.2c3.6,0.3,3.9,0.5,3.9,4.2v17.4
					c0,3.7-0.3,4-3.9,4.2v1.2H115.7z M103.3,22.3h-11v1.2c4.3,0.3,4.6,0.6,4.6,3.7v3.7c0,1.8-0.5,2.3-1.4,2.8
					c-1,0.5-2.3,0.8-3.8,0.8c-8.4,0-12.1-7.3-12.1-13.6c0-8,4.9-12.9,11.5-12.9c4.1,0,7.4,1.4,8.5,6.7l1.2-0.3
					c-0.3-2.9-0.6-5.3-0.7-6.8c-1.4-0.3-4.7-1.3-8.3-1.3c-8.5,0-16.6,4.9-16.6,15C75.1,30,81.5,36,91.1,36c3.5,0,7-1,9.7-1.6
					c-0.3-1.2-0.3-2.6-0.3-4.1v-3.7c0-2.6,0.2-2.8,2.8-3.2V22.3z M59.2,21.6V10.9c0-1.2,0.2-1.7,0.5-1.9c0.3-0.3,1.1-0.4,2.3-0.4
					c3.3,0,6.4,1.7,6.4,6.4c0,2.3-0.7,4.1-2.4,5.4c-1.1,0.9-2.5,1.2-4.7,1.2H59.2z M77.5,34.6c-1-0.3-2-0.7-3.1-2
					c-1-1.1-2-2.3-3.5-4.5c-1.3-2-3.1-4.9-3.9-6.3c3.2-1.4,5.5-3.7,5.5-7.4c0-2.6-1.1-4.6-2.9-5.7c-1.7-1.1-3.8-1.5-7-1.5H51.9v1.2
					c3.4,0.3,3.7,0.4,3.7,4.1v17.5c0,3.7-0.4,4-4,4.2v1.2h11.4v-1.2c-3.5-0.3-3.9-0.5-3.9-4.2V23h1.4c2.3,0,3,0.5,3.7,1.7
					c1.3,2.1,2.9,4.8,4.4,7c2,2.8,3.8,3.8,7,4c0.5,0,1,0,1.5,0L77.5,34.6z M49.3,35.3v-1.2c-3.6-0.3-3.9-0.5-3.9-4.2V12.5
					c0-3.7,0.3-4,3.9-4.2V7.1H37.8v1.2c3.6,0.3,3.9,0.5,3.9,4.2v17.4c0,3.7-0.3,4-3.9,4.2v1.2H49.3z M35.4,7.1h-9.8v1.2
					c3.5,0.4,3.8,0.8,3,3.3c-1.4,4.3-4.7,12.8-6.9,18.2h-0.1c-2.9-7.5-6.1-15.9-7.2-18.9C13.7,9,13.9,8.7,17,8.3V7.1H6.4v1.3
					c2.6,0.2,3.3,0.6,4.5,3.8c2.5,6.3,6.1,15.6,9,23.6h1.3c3.3-9,7.9-20,9-22.8c1.6-3.9,2.2-4.3,5.2-4.6V7.1z"/>
				<path fill="#FFFFFF" d="M271,13.4c-0.3-2.7-0.6-4.4-0.7-6c-1.6-0.5-3.5-1-5.5-1c-5.6,0-8.9,3.6-8.9,7.7c0,4.9,4.4,7.1,7.2,8.6
					c3.3,1.7,5.7,3.3,5.7,6.5c0,3.2-2,5.2-5.2,5.2c-4.5,0-6.4-4.4-7.1-7l-1.3,0.3c0.3,2.1,0.8,5.8,1.2,6.7c0.4,0.2,1,0.5,2.1,0.9
					c1.1,0.3,2.5,0.6,4.3,0.6c5.8,0,9.6-3.6,9.6-8.2c0-4.9-4.1-6.9-7.5-8.6c-3.4-1.8-5.5-3.3-5.5-6.4c0-2.3,1.5-4.8,4.8-4.8
					c3.8,0,4.9,3,5.7,5.8L271,13.4z M251,28.3c-0.6,1.7-1.4,3.2-2.1,4.1c-1,1.1-2.2,1.5-5.5,1.5c-2.2,0-3.7,0-4.5-0.6
					c-0.8-0.6-1-1.5-1-3.5v-8.2h4.1c3.8,0,4.1,0.3,4.7,3.4h1.3v-8.3h-1.3c-0.6,2.9-0.8,3.3-4.7,3.3h-4.1V10c0-1.3,0.1-1.4,1.4-1.4
					h3.3c3.1,0,4.3,0.3,4.9,1.2c0.6,1,1,1.9,1.4,3.7l1.3-0.2c-0.1-2.2-0.3-5.2-0.3-6.3h-19.4v1.2c3.4,0.3,3.7,0.4,3.7,4.3v17.3
					c0,3.5-0.3,3.9-4.3,4.2v1.2h20.9c0.4-1.3,1.3-5.4,1.5-6.9L251,28.3z M227.2,35.3v-1.2c-3.8-0.3-3.9-0.6-4-5.2l-0.4-15.7
					c-0.1-4.5,0.2-4.6,4-4.9V7.1h-7.4l-10,21.7l-9.9-21.7h-7.1v1.2c4,0.4,4.2,0.6,3.8,6.2l-0.6,9c-0.4,4.5-0.6,6.4-0.8,8
					c-0.3,1.8-1.2,2.3-3.7,2.6v1.2h10.1v-1.2c-2.9-0.3-3.9-0.6-4-2.7c0-1.7,0-3.6,0.1-7.2l0.7-12.4h0.1l9.7,23.2h0.9l10.6-23.8h0.2
					l0.1,17.7c0,4.6-0.1,4.8-3.6,5.2v1.2H227.2z M178,23.2h-8c1.3-3.6,2.7-7.3,4.1-11.1h0.1L178,23.2z M189,35.3v-1.2
					c-2.8-0.3-3.4-0.7-4.8-4.4c-2.8-7.6-5.7-15.8-8.4-23.3l-1.3,0.4l-9,22.8c-1.5,3.8-2.1,4.1-4.9,4.5v1.2h9.4v-1.2
					c-3.3-0.3-3.7-0.7-2.7-3.5c0.6-1.8,1.2-3.7,1.9-5.6h9.3c1,2.7,1.8,5,2.4,6.7c0.6,1.7,0.2,2-2.6,2.4v1.2H189z M161.9,7.1h-11.2
					v1.2c3.5,0.3,3.9,0.6,3.9,4.2v14.8c0,3.7-0.1,6.2-0.5,8.3c-0.4,2.5-1.7,4.5-4.2,5.7l0.6,1.2c1.1-0.3,2.6-1.2,4-2.5
					c2.9-2.7,3.7-5.6,3.7-11.2V12.5c0-3.6,0.3-4,3.7-4.2V7.1z"/>
			</g>
		</g>
	</g>
</g>
</svg>
